<?xml version="1.0" encoding="utf-8"?>
<!-- Generator: Adobe Illustrator 16.0.0, SVG Export Plug-In . SVG Version: 6.00 Build 0)  -->
<!DOCTYPE svg PUBLIC "-//W3C//DTD SVG 1.1//EN" "http://www.w3.org/Graphics/SVG/1.1/DTD/svg11.dtd">
<svg version="1.1" id="Layer_1" xmlns="http://www.w3.org/2000/svg" xmlns:xlink="http://www.w3.org/1999/xlink" x="0px" y="0px"
	 width="814.593px" height="642.586px" viewBox="0.004 137.548 814.593 642.586"
	 enable-background="new 0.004 137.548 814.593 642.586" xml:space="preserve">
<g>
	<path fill="#9E9E9E" d="M212.691,299.329c-2.456-13.315,22.959-47.352,35.17-55.971c18.334-12.929,35.708,1.155,55.382,4.779
		c5.047-22.867,22.346-9.403,41.359-12.566c16.707-2.782,20.304-11.927,41.385-6.812c11.647,2.826,21.773,14.231,34.329,13.352
		c16.717-1.166,35.893-21.141,48.934-28.164c1.367-0.731,2.724-1.438,4.086-2.157c-5.19-2.898-13.621-3.93-25.008-1.983
		c-32.996,5.633-25.203,14.378-62.013,5.099c-43.925-11.076-107.247-16.517-148.91,4.002c-45.552,22.431-35.84,64.084-57.282,97.913
		c-12.595,19.873-34.289,30.143,2.279,45.265c0.316,0.129,0.639,0.245,0.952,0.368c13.273-4.573,28.112-7.802,35.165-10.974
		C262.461,331.734,217.064,323.052,212.691,299.329z"/>
	<path fill="#676767" d="M106.824,234.504c-26.178,16.06-59.373,8.599-88.97,0.735c0.154,2.458,0.714,5.296,1.755,8.544
		c10.13,31.968,34.279,37.81,71.084,33.73c29.386-3.255,33.834-7.413,41.906-27.704c6.26-15.718,20.001-24.06,27.297-37.928
		c6.384-12.143-0.167-16.842-1.102-29.535c-1.019-13.604,9.985-14.588-5.418-20.248c-8.442-3.11-36.576,3.566-54.188,11.133
		C117.479,190.508,128.773,221.041,106.824,234.504z"/>
	<path fill="#676767" d="M792.042,330.217c7.389,1.947,14.949,2.855,22.554,3.535V226.347c-9.104,0.013-18.224-0.179-27.248,0.029
		c-46.71,1.069-96.277,8.495-140.596,21.031c-23.894,6.755-63.251,21.826-80.355-5.301c-13.72-21.755,43.52-32.049,63.67-39.241
		c30.141-10.754,69.326-17.946,90.8-40.013c27.505-28.253,7.645-29.93-24.852-19.201c-25.166,8.304-32.186,5.774-57.483,6.738
		c-27.949,1.074-31.971,8.527-56.842,17.217c-38.361,13.399-73.152,25.696-108.354,44.184c-1.362,0.719-2.719,1.426-4.086,2.157
		c-13.041,7.022-32.217,26.998-48.934,28.164c-12.555,0.88-22.682-10.525-34.328-13.352c-21.081-5.115-24.678,4.029-41.385,6.812
		c-19.014,3.163-36.312-10.301-41.359,12.566c-19.674-3.624-37.047-17.708-55.382-4.779c-12.211,8.619-37.626,42.655-35.17,55.971
		c4.374,23.723,49.771,32.405,5.827,52.149c-7.053,3.173-21.892,6.4-35.165,10.975c-17.078,5.882-31.582,13.99-23.607,27.067
		c10.091,16.549,68.259,21.347,87.347,28.177c26.032,9.319,53.611,29.611,83.288,27.05c28.834-2.487,43.148-9.963,74.082-2.675
		c38.362,9.037,74.264,19.237,115.104,15.21c56.228-5.55,8.627-24.927-19.085-34.9c-8-2.882-16.47-6.055-25.304-9.344
		c2.015,10.464-1.341,15.282-32.967,10.842c-26.15-3.673-40.275-21.862-69.294-24.824c-32.168-3.282-89.944,14.854-113.48-9.458
		c-33.67-34.776,32.225-85.81,72.006-90.808c40.05-5.031,39.354,16.724,68.286,25.808c24.444,7.675,54.241-7.248,67.894,15.705
		c1.685,2.839,0.965,6.003-0.675,9.271c9.964,8.728,16.589,20.248,27.677,28.625c11.889,8.976,48.086,30.485,63.522,23.113
		c15.761-7.526-11.451-27.398,19.632-41.175c50.854-18.371,98.905,36.833,114.164,44.604c13.719,6.981,29.067,10.48,42.618,16.961
		c6.804,3.253,11.802,11.306,19.055,13.513c4.531,1.376,8.971,2.941,13.517,4.274c8.234,2.415,16.324,1.557,23.328-2.607
		c3.743-2.228,6.062-5.408,9.431-7.724c3.618-2.479,6.516-3.6,6.444-8.071c-0.062-3.623-2.35-7.031-2.362-10.791
		c-0.015-2.583,0.6-5.269,0.389-7.843c-0.547-6.73-3.885-15.071-9.822-19.985c-5.956-4.932-15.689-6.888-23.911-6.766
		c-13.312,0.2-26.688,2.572-39.825,4.118l-1.026-0.093c-14.345-1.326-12.207,0.356-17.793-3.518
		c2.618,0.511-7.035-2.988-3.825-2.475c-25.354-16.446-23.616-73.476,15.923-71.792C747.314,302.929,769.868,324.37,792.042,330.217
		z M670.985,310.189c0.727,9.722-5.394,15.083-3.673,25.291c1.582,9.419,21.979,22.649-3.447,24.656
		c-20.977,1.655-17.417-17.012-26.354-25.668c-13.437-13.011-30.687-12.92-50.335-12.498c-16.812,0.365-52.891,10.254-65.389-3.14
		c-18.951-20.307,16.23-30.453,33.623-32.843c18.373-2.535,26.236-8.671,43.391-13.248
		C626.959,265.235,669.089,284.853,670.985,310.189z"/>
	<path fill="#676767" d="M78.086,627.171c-48.51,19.173,2.367,49.729,38.15,42.822c18.048-3.476,36.934-5.836,54.795-9.438
		c7.186-1.446,15.082-6.958,22.113-10.705c-19.361,1.354-44.022,1.275-53.627-15.237c-0.353-0.603-0.644-1.215-0.891-1.838
		C118.559,629.689,97.686,619.422,78.086,627.171z"/>
	<path fill="#676767" d="M29.422,478.33c29.514-5.425,20.389-15.732,38.75-29.862c19.282-14.847,25.578-7.219,36.007-30.502
		c4.303-9.608,10.108-18.11,18.25-20.579c-1.816-3.632-4.413-6.697-8.146-8.705c-8.372-4.492-12.22-1.867-13.018-11.931
		c-1.036-13.122,8.089-30.257-3.205-41.753c-6.295-6.411-11.237-9.749-15.716-11.121c-4.285,8.005-18.471,8.235-27.279,16.505
		c-14.031,13.174,1.441,22.062-3.981,36.852c-7.075,19.243-29.373,16.874-51.079,11.994v94.94
		C5.463,475.471,18.948,480.259,29.422,478.33z"/>
	<path fill="#676767" d="M141.253,585.038c14.816,1.396,32.211,8.329,38.842,17.733c2.799,0,5.568,0.072,8.23,0.18
		c28.553,1.165,55.634,8.642,83.676,12.25c30.218,3.888,61.166,22.575,91.451,13.39c44.119-13.379,27.605-31.093-6.753-38.149
		c-47.328-9.719-48.338-14.519-65.923-42.519c-15.509-24.688-45.195-29.172-80.567-32.661c-1.407-0.139-2.822-0.29-4.228-0.461
		c-3.954-0.472-7.825-1.083-11.594-1.831c-1.83,1.567-4.144,2.983-7.001,4.192c-24.51,10.403-52.962-22.525-78.178-19.217
		c-24.634,3.229-26.463,43.299-49.091,48.117C44.013,549.488,7.6,515.179,0.005,495.269v138.726
		c7.86-8.147,15.028-16.749,22.461-24.062C44.93,587.818,107.251,581.82,141.253,585.038z"/>
	<path fill="#676767" d="M721.081,681.867c-32.277,14.484-88.232,39.461-123.319,19.365c-20.499-11.741-19.636-22.92-11.738-34.42
		c-6.888-0.604-14.125-0.402-22.368,1.661c-23.229,5.809-43.27,19.494-62.507,31.021c-68.73,41.191,76.297,58.848,106.955,59.304
		c32.772,0.483,66.929,25.147,92.877,10.372c17.571-10.004,17.846-17.277,42.825-10.396c11.947,3.289,43.414,27.312,55.449,19.975
		c11.4-6.955-3.09-50.497,1.843-62.485c3.161-7.674,7.812-12.798,13.498-16.09v-45.671c-9.558,0.882-18.921,2.243-27.859,4.694
		C766.298,664.798,740.068,673.354,721.081,681.867z"/>
	<path fill="#2F2F2F" d="M78.478,736.631c33.614-14.191,73.739-26.323,108.975-37.941c37.644-12.415,76.891,12.045,107.824-11.408
		c13.688,7.906,34.654,8.584,46.262,15.731c13.877,8.542,12.4,28.612,33.032,31.47c23.21,3.213,57.189-28.145,68.479-41.709
		c15.117-18.15,15.455-38.093-10.338-50.555c-24.537-11.851-49.704-0.242-75.118,1.996c-23.964,2.11-47.915-7.198-71.248-4.331
		c-17.977,2.207-30.607,16.423-48.593,16.416c-12.833,0-22.408-11.156-34.941-10.01c-2.878,0.264-6.167,1.697-9.667,3.561
		c-7.031,3.747-14.927,9.259-22.113,10.705c-17.862,3.603-36.748,5.963-54.795,9.438c-35.783,6.906-86.66-23.649-38.15-42.822
		c19.6-7.749,40.473,2.519,60.54,5.604c10.607,1.636,21.001,1.263,30.859-4.851c14.385-8.929,15.786-17.797,10.611-25.152
		c-6.63-9.403-24.025-16.337-38.842-17.732c-34.002-3.218-96.323,2.78-118.788,24.893c-7.433,7.313-14.601,15.915-22.461,24.062
		v107.324C27.081,760.158,41.734,752.141,78.478,736.631z"/>
	<path fill="#9E9E9E" d="M106.824,234.504c21.949-13.463,10.655-43.996-7.636-61.272c-4.699-4.436-9.849-8.015-15.023-10.184
		c-46.054-19.315-27.253,19.647-58.816,25.827c-8.725,1.708-17.377-2.487-25.344-6.657v48.287
		c5.735,1.462,11.708,3.102,17.849,4.734C47.452,243.103,80.646,250.563,106.824,234.504z"/>
	<path fill="#9E9E9E" d="M60.117,546.062c22.628-4.818,24.458-44.89,49.091-48.117c25.216-3.31,53.668,29.62,78.178,19.217
		c2.857-1.209,5.171-2.625,7.001-4.192c12.868-10.981,2.111-29.351-12.49-35.844c-18.33-8.146-52.574,0.464-47.799-24.518
		c3.875-20.309,40.553-21.488,15.702-44.468c-11.294-10.442-20.229-12.92-27.372-10.755c-8.142,2.469-13.948,10.97-18.25,20.579
		c-10.43,23.283-16.725,15.655-36.007,30.502c-18.361,14.13-9.235,24.438-38.75,29.862c-10.474,1.929-23.959-2.859-29.417,5.838
		v11.101C7.6,515.179,44.013,549.488,60.117,546.062z"/>
	<path fill="#9E9E9E" d="M730.074,650.997c-36.145,2.579-39.909-14.854-49.069-35.671c-11.034-25.094-2.893-33.479-37.065-50.303
		c-30.703-15.123-48.773-14.109-82.66-14.228c-31.287-0.112-41.91-5.311-70.988-11.799c-14.565-3.249-51.931-2.54-77.244-9.689
		c0.098,2.938,1.307,6.64,3.92,11.279c17.224,30.555,75.021,19.104,101.271,22.021c20.987,2.328,31.118,15.119,50.264,21.52
		c16.694,5.574,35.021-0.522,46.094,13.511c21.566,27.383-14.569,48.787-28.569,69.174c-7.896,11.5-8.761,22.68,11.738,34.421
		c35.087,20.096,91.042-4.881,123.319-19.365c18.987-8.513,45.217-17.069,65.654-22.672c8.938-2.451,18.303-3.812,27.859-4.694
		v-42.771c-5.915,0.275-11.595,0.845-16.329,2.45C771.2,623.359,759.638,648.891,730.074,650.997z"/>
	<path fill="#2F2F2F" d="M51.084,377.232c5.422-14.788-10.05-23.678,3.981-36.852c8.808-8.27,22.995-8.5,27.279-16.505
		c1.468-2.744,1.781-6.4,0.295-11.619c-6.299-22.172-44.216-24.277-62.528-13.794c-5.484,3.139-12.793,10.221-20.106,13.248v77.516
		C21.711,394.106,44.009,396.477,51.084,377.232z"/>
	<path fill="#2F2F2F" d="M704.255,494.788c-57.115-21.318-42.352-55.164-111.151-37.075c-35.907,9.44-66.668,31.889-103.634,38.288
		c-24.643,4.264-103.442-24.909-101.489,11.965c0.581,10.927,10.95,17.356,25.065,21.343c25.313,7.149,62.679,6.44,77.244,9.689
		c29.078,6.488,39.701,11.687,70.988,11.799c33.887,0.117,51.957-0.896,82.661,14.228c34.173,16.824,26.03,25.209,37.064,50.303
		c9.16,20.815,12.926,38.25,49.069,35.671c29.562-2.106,41.126-27.638,68.191-36.816c4.734-1.605,10.414-2.175,16.329-2.45V496.838
		C777.671,493.75,739.075,507.787,704.255,494.788z"/>
	<path fill="#2F2F2F" d="M467.622,340.303c-13.652-22.953-43.449-8.03-67.894-15.705c-28.932-9.084-28.235-30.839-68.286-25.808
		c-39.781,4.998-105.677,56.03-72.006,90.808c23.537,24.312,81.312,6.176,113.48,9.458c29.021,2.962,43.144,21.151,69.294,24.824
		c31.626,4.44,34.98-0.378,32.967-10.842c-1.01-5.249-3.367-11.913-4.192-19.547c-0.684-6.287-11.334-16.876-13.058-24.83
		c-1.217-5.602,5.752-12.553,9.02-19.088C468.587,346.306,469.307,343.142,467.622,340.303z"/>
	<path fill="#2F2F2F" d="M598.802,272.741c-17.153,4.577-25.018,10.713-43.391,13.248c-17.392,2.39-52.574,12.536-33.623,32.843
		c12.498,13.394,48.575,3.505,65.389,3.14c19.648-0.422,36.898-0.513,50.335,12.498c8.938,8.656,5.378,27.323,26.354,25.668
		c25.427-2.007,5.03-15.237,3.446-24.657c-1.72-10.207,4.399-15.568,3.674-25.291C669.089,284.853,626.959,265.235,598.802,272.741z
		"/>
</g>
</svg>
