<?xml version="1.0" encoding="utf-8"?>
<!-- Generator: Adobe Illustrator 16.0.0, SVG Export Plug-In . SVG Version: 6.00 Build 0)  -->
<!DOCTYPE svg PUBLIC "-//W3C//DTD SVG 1.1//EN" "http://www.w3.org/Graphics/SVG/1.1/DTD/svg11.dtd">
<svg version="1.1" id="Layer_1" xmlns="http://www.w3.org/2000/svg" xmlns:xlink="http://www.w3.org/1999/xlink" x="0px" y="0px"
	 width="814.596px" height="1080.002px" viewBox="0 0 814.596 1080.002" enable-background="new 0 0 814.596 1080.002"
	 xml:space="preserve">
<g>
	<rect fill="#D6D6D6" width="814.596" height="1080.002"/>
	<path fill="#9E9E9E" d="M212.691,299.329c-2.456-13.315,22.959-47.352,35.17-55.971c18.334-12.929,35.708,1.155,55.382,4.779
		c5.047-22.867,22.346-9.403,41.359-12.566c16.707-2.782,20.304-11.927,41.385-6.812c11.647,2.826,21.773,14.231,34.328,13.352
		c16.717-1.166,35.893-21.141,48.934-28.164c1.367-0.731,2.724-1.438,4.086-2.157c-5.191-2.898-13.621-3.93-25.008-1.983
		c-32.996,5.633-25.203,14.378-62.013,5.099c-43.925-11.076-107.247-16.517-148.91,4.002c-45.552,22.431-35.84,64.084-57.282,97.913
		c-12.595,19.873-34.289,30.143,2.279,45.265c0.316,0.129,0.639,0.245,0.952,0.368c13.273-4.573,28.112-7.802,35.165-10.974
		C262.461,331.734,217.064,323.052,212.691,299.329z"/>
	<path fill="#676767" d="M106.824,234.504c-26.178,16.06-59.373,8.599-88.97,0.735c0.154,2.458,0.714,5.296,1.755,8.544
		c10.13,31.968,34.279,37.81,71.084,33.73c29.386-3.255,33.834-7.413,41.906-27.704c6.26-15.718,20.001-24.06,27.297-37.928
		c6.384-12.143-0.167-16.842-1.102-29.535c-1.019-13.604,9.985-14.588-5.418-20.248c-8.442-3.11-36.576,3.566-54.188,11.133
		C117.479,190.508,128.773,221.041,106.824,234.504z"/>
	<path fill="#676767" d="M792.042,330.217c7.389,1.947,14.949,2.855,22.554,3.535V226.347c-9.104,0.013-18.224-0.179-27.248,0.029
		c-46.71,1.069-96.278,8.495-140.596,21.031c-23.894,6.755-63.251,21.826-80.355-5.301c-13.72-21.755,43.519-32.049,63.669-39.241
		c30.141-10.754,69.326-17.946,90.8-40.013c27.505-28.253,7.645-29.93-24.851-19.201c-25.166,8.304-32.186,5.774-57.484,6.738
		c-27.949,1.074-31.97,8.527-56.842,17.217c-38.361,13.399-73.152,25.696-108.354,44.184c-1.362,0.719-2.719,1.426-4.086,2.157
		c-13.041,7.023-32.217,26.998-48.934,28.164c-12.554,0.88-22.681-10.525-34.328-13.352c-21.081-5.115-24.678,4.029-41.385,6.812
		c-19.014,3.163-36.312-10.301-41.359,12.566c-19.674-3.624-37.047-17.708-55.382-4.779c-12.211,8.619-37.626,42.655-35.17,55.971
		c4.374,23.723,49.771,32.405,5.827,52.15c-7.053,3.172-21.892,6.4-35.165,10.974c-17.078,5.882-31.582,13.99-23.607,27.068
		c10.091,16.548,68.259,21.346,87.347,28.176c26.032,9.32,53.611,29.612,83.288,27.05c28.834-2.487,43.148-9.963,74.082-2.675
		c38.362,9.037,74.263,19.238,115.103,15.21c56.228-5.55,8.627-24.926-19.085-34.9c-8-2.882-16.469-6.055-25.303-9.344
		c2.014,10.464-1.341,15.282-32.967,10.842c-26.15-3.673-40.275-21.862-69.294-24.824c-32.168-3.283-89.944,14.854-113.48-9.458
		c-33.67-34.777,32.225-85.81,72.006-90.808c40.05-5.031,39.354,16.724,68.286,25.808c24.444,7.674,54.241-7.248,67.893,15.705
		c1.685,2.839,0.965,6.003-0.675,9.271c9.964,8.728,16.589,20.248,27.677,28.625c11.889,8.976,48.086,30.486,63.523,23.114
		c15.76-7.527-11.452-27.399,19.631-41.175c50.855-18.371,98.906,36.833,114.164,44.604c13.719,6.982,29.068,10.481,42.619,16.961
		c6.803,3.253,11.801,11.306,19.054,13.513c4.531,1.376,8.971,2.941,13.517,4.274c8.234,2.415,16.324,1.557,23.328-2.607
		c3.743-2.228,6.062-5.408,9.43-7.724c3.619-2.479,6.516-3.599,6.445-8.071c-0.062-3.623-2.35-7.031-2.363-10.791
		c-0.014-2.583,0.6-5.269,0.389-7.843c-0.547-6.73-3.885-15.071-9.822-19.985c-5.956-4.932-15.689-6.888-23.911-6.766
		c-13.313,0.2-26.688,2.572-39.825,4.118l-1.027-0.092c-14.345-1.327-12.207,0.356-17.793-3.518
		c2.619,0.511-7.035-2.988-3.825-2.475c-25.353-16.446-23.616-73.475,15.923-71.791C747.315,302.929,769.868,324.37,792.042,330.217
		z M670.985,310.189c0.727,9.722-5.393,15.083-3.673,25.291c1.583,9.419,21.979,22.65-3.447,24.657
		c-20.976,1.655-17.417-17.012-26.354-25.668c-13.437-13.011-30.687-12.92-50.335-12.498c-16.813,0.365-52.891,10.254-65.389-3.14
		c-18.951-20.307,16.231-30.453,33.623-32.843c18.373-2.535,26.237-8.671,43.391-13.248
		C626.959,265.235,669.089,284.853,670.985,310.189z"/>
	<path fill="#676767" d="M78.086,627.171c-48.51,19.173,2.367,49.729,38.15,42.822c18.048-3.475,36.934-5.836,54.795-9.438
		c7.186-1.447,15.082-6.958,22.113-10.705c-19.361,1.354-44.022,1.275-53.627-15.238c-0.353-0.602-0.644-1.215-0.891-1.838
		C118.559,629.689,97.686,619.422,78.086,627.171z"/>
	<path fill="#676767" d="M29.422,478.33c29.514-5.425,20.389-15.732,38.75-29.862c19.282-14.847,25.578-7.219,36.007-30.502
		c4.303-9.609,10.108-18.11,18.25-20.579c-1.816-3.632-4.413-6.698-8.146-8.705c-8.372-4.493-12.22-1.868-13.018-11.931
		c-1.036-13.122,8.089-30.257-3.205-41.753c-6.295-6.411-11.237-9.749-15.716-11.121c-4.285,8.005-18.471,8.235-27.279,16.505
		c-14.031,13.174,1.441,22.062-3.981,36.851c-7.075,19.244-29.373,16.874-51.079,11.995v94.94
		C5.463,475.471,18.948,480.259,29.422,478.33z"/>
	<path fill="#676767" d="M141.253,585.038c14.816,1.396,32.211,8.329,38.842,17.733c2.799,0,5.568,0.073,8.23,0.18
		c28.553,1.165,55.634,8.642,83.676,12.25c30.218,3.888,61.166,22.575,91.451,13.39c44.119-13.379,27.605-31.093-6.753-38.15
		c-47.328-9.718-48.338-14.518-65.923-42.518c-15.509-24.688-45.195-29.172-80.567-32.661c-1.407-0.139-2.822-0.29-4.228-0.461
		c-3.954-0.472-7.825-1.083-11.594-1.831c-1.83,1.567-4.144,2.983-7.001,4.192c-24.51,10.403-52.962-22.525-78.178-19.217
		c-24.634,3.229-26.463,43.299-49.091,48.118C44.013,549.488,7.6,515.179,0.005,495.269v138.725
		c7.86-8.147,15.028-16.749,22.461-24.062C44.93,587.818,107.251,581.82,141.253,585.038z"/>
	<path fill="#676767" d="M721.081,681.867c-32.277,14.485-88.232,39.461-123.319,19.365c-20.499-11.741-19.636-22.92-11.739-34.42
		c-6.887-0.603-14.125-0.402-22.368,1.662c-23.228,5.808-43.269,19.494-62.507,31.02c-68.73,41.192,76.297,58.848,106.956,59.304
		c32.772,0.483,66.928,25.147,92.876,10.372c17.572-10.004,17.846-17.277,42.826-10.397c11.947,3.289,43.414,27.312,55.449,19.975
		c11.4-6.955-3.09-50.497,1.843-62.485c3.161-7.674,7.812-12.798,13.498-16.09v-45.671c-9.558,0.882-18.921,2.243-27.86,4.694
		C766.298,664.798,740.068,673.354,721.081,681.867z"/>
	<path fill="#676767" d="M547.074,1074.305c-13.093-13.639,7.106-47.056,18.146-59.099c-21.928-3.031-38.261,18.291-45.755,32.354
		c-8.42,15.814-12.282,27.147-20.962,32.442h61.413C554.071,1078.379,549.208,1076.534,547.074,1074.305z"/>
	<path fill="#676767" d="M2.659,1055.227c-0.393-3.74-1.371-7.642-2.659-11.612v36.388h12.181
		C5.158,1074.628,3.906,1067.072,2.659,1055.227z"/>
	<path fill="#676767" d="M368.985,1045.521c-21.226,14.551-73.54,15.22-91.037,14.916c-52.627-0.907-87.109-2.179-124.867-30.799
		c-19.517-14.793-72.303-15.388-82.186,9.409c-5.422,13.604,2.271,30.225,1.53,40.955h389.937c-1.396-0.344-2.842-0.716-4.342-1.118
		C427.109,1070.586,398.42,1057.2,368.985,1045.521z"/>
	<path fill="#9E9E9E" d="M93.842,941.293c23.667,1.311,32.344,17.062,54.681-0.992c51.111-41.311-16.844-103.494,2.486-139.728
		c-2.641,0.275-5.484,0.824-8.561,1.702c-35.046,10.018-10.518,66.278-26.688,88.75c-20.887,29.043-71.367,31.615-54.258,76.626
		c0.119,0.322,0.265,0.638,0.393,0.953c0.55-0.62,1.111-1.269,1.692-1.967C74.414,953.632,70.574,940.01,93.842,941.293z"/>
	<path fill="#9E9E9E" d="M289.185,898.392c0.396,2.975-12.176,23.75-13.729,27.563c-9.812,24.148-7.688,39.65-41.725,49.739
		c-6.74,2-75.132,2.928-75.26,3.952c-1.454,11.269,8.637,19.663,20.301,25.682c32.586,16.812,28.297-4.557,54.465-8.491
		c19.604-2.955,58.146,25.668,78.094,30.924c7.168,1.888,14.288,3.558,21.24,4.507c-29.531-11.508-52.829-32.99-35.307-62.541
		c21.39-36.08,64.067-12.401,97.646-22.099c16.774-4.845,51.728-36.797,72.297-15.798c18.418,18.795-38.004,56.233-6.375,75.766
		c19.936,12.319,65.967-28.69,66.055-47.127c0.133-29.502-32.6-56.032,8.637-77.139c22.676-11.608,47.012,0.681,64.684-11.931
		c7.396-5.278,9.452-13.035,14.557-19.599c-26.463-3.776-60.544-6.147-63.105-18.96c-4.29-21.454,46.434-51.421-15.804-45.893
		c-43.241,3.836-50.974,39.242-82.446,56.407c-25.149,13.72-46.517,11.071-32.578-12.153c8.271-13.793,45.473-22.35,14.518-43.212
		c-17.59-11.862-63.335,0.642-76.481,13.834c-23.443,23.527-5.739,34.781-50.03,40.288c-18.723,2.329-36.493,0.184-54.051,8.062
		c-7.468,3.354-12.758,8.824-17.946,14.142C258.988,872.323,286.323,876.687,289.185,898.392z"/>
	<path fill="#9E9E9E" d="M374.558,0H271.93c-2.733,2.225-5.541,4.257-8.521,5.928c-13.357,7.481-21.491,6.726-36.942,7.608
		c-28.871,1.647-35.077,5.867-49.85,26.087c-24.404,0.159-43.625,26.06-17.087,36.849c-2.596-25.685,16.964-19.752,47.373-17.97
		c18.634,1.088,47.518-1.868,60.245,10.835c5.784-4.418,9.905-10.829,16.298-13.98c14.688-7.233,16.051-24.093,37.114-27.35
		c28.646-4.421,58.53,23.384,87.426,24.292c19.438,0.607,38.354-8.476,57.402-13.334c-12.502-8.045-25.266-14.526-33.989-18.07
		C412.16,13.071,392.742,8.305,374.558,0z"/>
	<path fill="#2F2F2F" d="M78.478,736.631c33.614-14.192,73.739-26.323,108.975-37.942c37.644-12.415,76.891,12.045,107.824-11.408
		c13.688,7.907,34.654,8.584,46.262,15.732c13.877,8.542,12.4,28.612,33.032,31.469c23.21,3.213,57.19-28.144,68.479-41.709
		c15.117-18.15,15.455-38.092-10.338-50.554c-24.537-11.851-49.704-0.242-75.118,1.996c-23.964,2.11-47.915-7.198-71.248-4.331
		c-17.977,2.207-30.607,16.423-48.593,16.416c-12.833,0-22.408-11.156-34.941-10.01c-2.878,0.264-6.167,1.697-9.667,3.561
		c-7.031,3.747-14.927,9.258-22.113,10.705c-17.862,3.602-36.748,5.963-54.795,9.438c-35.783,6.907-86.66-23.649-38.15-42.822
		c19.6-7.749,40.473,2.519,60.54,5.604c10.607,1.635,21.001,1.262,30.859-4.851c14.385-8.929,15.786-17.797,10.611-25.152
		c-6.63-9.404-24.025-16.337-38.842-17.733c-34.002-3.218-96.323,2.78-118.788,24.893c-7.433,7.313-14.601,15.915-22.461,24.062
		v107.324C27.081,760.158,41.734,752.141,78.478,736.631z"/>
	<path fill="#2F2F2F" d="M161.236,789.306c-4.739,3.375-8.041,7.158-10.228,11.268c-19.331,36.233,48.625,98.417-2.486,139.728
		c-22.337,18.054-31.013,2.303-54.681,0.992c-23.268-1.283-19.428,12.339-30.255,25.345c-0.582,0.698-1.142,1.347-1.692,1.967
		c-20.459,23.081-22.157-3.779-46.487-7.241C9.544,960.536,4.342,963.03,0,967.189v76.425c1.288,3.971,2.266,7.872,2.659,11.612
		c1.248,11.846,2.5,19.401,9.522,24.775h60.245c0.741-10.73-6.952-27.351-1.53-40.955c9.883-24.797,62.669-24.202,82.186-9.409
		c37.757,28.62,72.239,29.892,124.867,30.799c17.497,0.304,69.811-0.365,91.037-14.916c29.435,11.68,58.125,25.065,89.036,33.363
		c1.5,0.402,2.945,0.774,4.342,1.118h36.141c8.68-5.295,12.542-16.628,20.962-32.442c7.494-14.062,23.827-35.385,45.755-32.354
		c-11.039,12.043-31.238,45.46-18.146,59.099c2.134,2.229,6.997,4.074,12.842,5.697h163.149c-1.658-1.529-3.223-2.917-4.651-4.149
		c-15.878-13.625-80.872-34.245-86.778-51.012c-1.406-3.984,1.062-8.52,5.788-13.113c-13.084-9.516-20.411-22.579-17.542-41.951
		c0.517-3.505,7.733-4.218,8.588-8.882c1.848-9.982-7.379-20.308-5.135-30.509c3.874-17.638,20.115-16.824,30.946-28.434
		c29.589,15.217,65.909,38.016,101.675,40.72c28.2,2.132,59.583-9.949,48.359-36.416c-15.318-36.118-41.668-14.316-68.285-20.046
		c-27.143-5.844-39.632-36.939-68.309-44.302c-13.004-3.343-29.549-3.941-41.87,1.358c-5.184,2.229-8.521,5.23-11.087,8.534
		c-5.104,6.563-7.16,14.32-14.557,19.599c-17.672,12.611-42.008,0.322-64.684,11.931c-41.236,21.106-8.504,47.637-8.637,77.139
		c-0.088,18.437-46.119,59.446-66.055,47.127c-31.629-19.532,24.793-56.971,6.375-75.766
		c-20.569-20.999-55.523,10.953-72.297,15.798c-33.579,9.697-76.256-13.981-97.646,22.099
		c-17.522,29.551,5.775,51.033,35.307,62.541c-6.952-0.949-14.072-2.619-21.24-4.507c-19.948-5.256-58.49-33.879-78.094-30.924
		c-26.167,3.935-21.878,25.303-54.465,8.491c-11.665-6.019-21.755-14.413-20.301-25.682c0.128-1.024,68.52-1.952,75.26-3.952
		c34.037-10.089,31.912-25.591,41.725-49.739c1.553-3.813,14.125-24.589,13.729-27.563c-2.862-21.705-30.197-26.068-52.345-34.076
		c-17.969-6.496-32.521-15.392-27.804-37.885c4.338-20.691,30.391-19.262,4.017-35.51
		C203.812,785.234,170.494,782.72,161.236,789.306z"/>
	<path fill="#9E9E9E" d="M232.048,778.524c6.524,16.506,44.719,6.908,57.375,3.304c5.912-1.684,49.872-12.246,52.591-15.657
		c7.354-9.219-13.141-28.427-24.55-30.354c-18.242-3.074-28.826,15.918-43.841,21.854
		C262.228,762.176,225.361,761.617,232.048,778.524z"/>
	<path fill="#9E9E9E" d="M106.824,234.504c21.949-13.463,10.655-43.996-7.636-61.272c-4.699-4.436-9.849-8.015-15.023-10.184
		c-46.054-19.315-27.253,19.647-58.816,25.827c-8.725,1.708-17.377-2.487-25.344-6.657v48.287
		c5.735,1.462,11.708,3.102,17.849,4.734C47.452,243.103,80.646,250.563,106.824,234.504z"/>
	<path fill="#9E9E9E" d="M60.117,546.063c22.628-4.819,24.458-44.89,49.091-48.118c25.216-3.309,53.668,29.62,78.178,19.217
		c2.857-1.209,5.171-2.625,7.001-4.192c12.868-10.982,2.111-29.351-12.49-35.844c-18.33-8.146-52.574,0.464-47.799-24.518
		c3.875-20.308,40.553-21.488,15.702-44.467c-11.294-10.443-20.229-12.92-27.372-10.755c-8.142,2.469-13.948,10.97-18.25,20.579
		c-10.43,23.283-16.725,15.655-36.007,30.502c-18.361,14.13-9.235,24.438-38.75,29.862c-10.474,1.929-23.959-2.859-29.417,5.838
		v11.101C7.6,515.179,44.013,549.488,60.117,546.063z"/>
	<path fill="#9E9E9E" d="M730.074,650.997c-36.144,2.579-39.909-14.854-49.069-35.671c-11.034-25.094-2.893-33.478-37.065-50.303
		c-30.704-15.123-48.774-14.109-82.661-14.227c-31.287-0.112-41.91-5.311-70.988-11.799c-14.565-3.249-51.931-2.54-77.244-9.689
		c0.098,2.938,1.306,6.639,3.92,11.279c17.223,30.555,75.021,19.104,101.27,22.021c20.988,2.329,31.119,15.12,50.264,21.52
		c16.694,5.574,35.02-0.523,46.094,13.511c21.566,27.383-14.57,48.787-28.57,69.174c-7.896,11.5-8.76,22.679,11.739,34.42
		c35.087,20.096,91.042-4.88,123.319-19.365c18.987-8.513,45.217-17.069,65.654-22.672c8.939-2.451,18.303-3.812,27.86-4.694
		v-42.771c-5.915,0.276-11.595,0.845-16.329,2.451C771.2,623.359,759.638,648.891,730.074,650.997z"/>
	<path fill="#676767" d="M698.678,73.979c-24.774,5.656-50.325,2.732-75.683,1.604c-21.535-0.961-53.509,1.565-23.315-16.331
		c11.452-6.795,31.312-2.888,44.798-9.142c16.58-7.688,26.503-22.122,36.264-34.866C686.476,7.753,689.368,3.227,692.353,0H374.558
		c18.184,8.305,37.603,13.071,56.841,20.895c8.724,3.544,21.487,10.025,33.989,18.07c21.816,14.054,42.826,32.901,40.203,49.405
		c-4.884,30.666-80.131,10.575-111.249,12.51c-36.091,2.256-68.634,24.813-97.381,39.979c-52.71,27.79,2.084,37.838,37.621,33.355
		c23.819-3.011,33.918-12.002,54.285-19.888c36.25-14.04,77.949-11.007,115.742-20.888c32.186-8.422,61.555-12.23,95.67-12.573
		c32.725-0.333,75.441,6.056,106.018-6.246c26.639-10.716,52.361-34.276,59.006-58.821c-16.285,1.634-41.201,12.37-66.545,18.161
		C698.726,73.968,698.704,73.975,698.678,73.979z"/>
	<path fill="#676767" d="M77.932,143.505c0.688-0.296,1.332-0.571,1.961-0.835c-0.696,0.185-1.406,0.363-2.133,0.539
		C77.817,143.308,77.87,143.406,77.932,143.505z"/>
	<path fill="#676767" d="M206.903,58.502c-30.409-1.782-49.969-7.715-47.373,17.97c-26.538-10.789-7.317-36.689,17.087-36.849
		c14.773-20.22,20.979-24.439,49.85-26.087c15.451-0.883,23.585-0.127,36.942-7.608c2.98-1.671,5.788-3.703,8.521-5.928h-93.166
		c-0.623,1.095-1.292,2.218-2.051,3.379c2.253,0.252,3.831,1.186,4.726,2.794c-20.31,20.347-55.145,16.048-77.525,31.737
		C85.562,50.776,88.397,69.147,92.237,90.778c3.941,22.245,23.968,33.177-0.031,47.076c4.633-1.345,7.966-1.265,17.259-1.641
		c17.805-0.711,14.953,2.07,32.291-6.49c8.641-4.27,16.351-2.293,21.015-9.803c2.213-3.568-4.545-11.892-1.411-16.522
		c9.231-13.629,42.598-4.256,58.6-5.465c33.72-2.544,27.028-16.189,48.404-27.277c-0.388-0.462-0.798-0.896-1.216-1.319
		C254.42,56.634,225.537,59.59,206.903,58.502z"/>
	<path fill="#2F2F2F" d="M51.084,377.232c5.422-14.788-10.05-23.677,3.981-36.851c8.808-8.27,22.995-8.5,27.279-16.505
		c1.468-2.744,1.781-6.4,0.295-11.619c-6.299-22.172-44.216-24.277-62.528-13.794c-5.484,3.139-12.793,10.221-20.106,13.248v77.516
		C21.711,394.106,44.009,396.477,51.084,377.232z"/>
	<path fill="#2F2F2F" d="M704.255,494.788c-57.115-21.318-42.352-55.164-111.152-37.075c-35.907,9.44-66.668,31.889-103.633,38.288
		c-24.643,4.264-103.442-24.909-101.489,11.965c0.581,10.927,10.95,17.356,25.065,21.343c25.313,7.149,62.679,6.44,77.244,9.689
		c29.078,6.488,39.701,11.687,70.988,11.799c33.887,0.117,51.957-0.896,82.661,14.227c34.173,16.825,26.031,25.209,37.065,50.303
		c9.16,20.816,12.926,38.25,49.069,35.671c29.563-2.106,41.126-27.638,68.192-36.816c4.734-1.606,10.414-2.175,16.329-2.451V496.838
		C777.671,493.75,739.075,507.787,704.255,494.788z"/>
	<path fill="#2F2F2F" d="M467.622,340.303c-13.652-22.953-43.449-8.031-67.893-15.705c-28.932-9.084-28.236-30.839-68.286-25.808
		c-39.781,4.998-105.677,56.03-72.006,90.808c23.537,24.312,81.312,6.175,113.48,9.458c29.02,2.962,43.144,21.151,69.294,24.824
		c31.626,4.44,34.98-0.378,32.967-10.842c-1.01-5.249-3.368-11.913-4.193-19.547c-0.683-6.287-11.334-16.876-13.057-24.83
		c-1.217-5.601,5.752-12.553,9.019-19.088C468.587,346.306,469.307,343.142,467.622,340.303z"/>
	<path fill="#2F2F2F" d="M598.802,272.741c-17.153,4.577-25.018,10.713-43.391,13.248c-17.392,2.39-52.574,12.536-33.623,32.843
		c12.498,13.394,48.575,3.505,65.389,3.14c19.648-0.422,36.898-0.513,50.335,12.498c8.937,8.656,5.378,27.323,26.354,25.668
		c25.427-2.007,5.03-15.238,3.447-24.657c-1.72-10.208,4.399-15.569,3.673-25.291C669.089,284.853,626.959,265.235,598.802,272.741z
		"/>
	<path fill="#9E9E9E" d="M779.496,995.551c-31.427,8.105-50.916-20.328-83.992-13.206c-13.118,2.826-44.683,16.352-58.08,29.383
		c-4.726,4.594-7.194,9.129-5.788,13.113c5.906,16.767,70.9,37.387,86.778,51.012c1.429,1.232,2.993,2.62,4.651,4.149h91.53V968.375
		C797.007,969.217,782.38,973.729,779.496,995.551z"/>
	<path fill="#2F2F2F" d="M92.237,90.778c-3.84-21.631-6.675-40.002,11.678-52.868C126.295,22.221,161.13,26.52,181.44,6.173
		c-0.895-1.608-2.473-2.542-4.726-2.794c0.759-1.161,1.428-2.284,2.051-3.379H0.005v146.429c28.412,2.746,58.64,1.388,77.755-3.22
		c0.727-0.176,1.438-0.354,2.133-0.539c4.584-1.222,8.451-2.642,11.36-4.256c0.34-0.185,0.63-0.369,0.952-0.56
		C116.205,123.955,96.178,113.023,92.237,90.778z"/>
	<path fill="#D6D6D6" d="M692.353,0c-2.984,3.227-5.877,7.753-11.611,15.245c-9.761,12.744-19.684,27.178-36.264,34.866
		c-13.486,6.254-33.346,2.347-44.798,9.142c-30.193,17.896,1.78,15.37,23.315,16.331c25.357,1.128,50.908,4.052,75.683-1.604
		c0.026-0.005,0.048-0.012,0.079-0.02c25.344-5.791,50.26-16.527,66.545-18.161c17.329-1.737,24.89,6.836,12.811,42.65
		c-13.256,39.27-5.064,61.742,36.483,73.916V0H692.353z"/>
</g>
</svg>
